<svg width="48" height="48" viewBox="0 0 48 48" fill="none" xmlns="http://www.w3.org/2000/svg">
<rect width="48" height="48" rx="8" fill="white" fill-opacity="0.1"/>
<rect x="0.5" y="0.5" width="47" height="47" rx="7.5" stroke="white" stroke-opacity="0.2"/>
<path d="M17.4423 33.2594V31.7595H22.4423V29.2594H22.1923C20.8782 29.2594 19.758 28.7963 18.8317 27.8701C17.9055 26.9438 17.4423 25.8236 17.4423 24.5094C17.4423 23.5389 17.7151 22.6559 18.2606 21.8604C18.8061 21.0649 19.5346 20.4851 20.4462 20.121C20.5282 19.4966 20.8225 19.003 21.3289 18.6402C21.8353 18.2774 22.3898 18.1505 22.9923 18.2595L22.3846 16.5748L23.3346 16.2248L22.9846 15.3056L24.5192 14.7402L24.8385 15.6902L25.75 15.3595L28.3654 22.4941L27.4538 22.8441L27.8038 23.7941L26.2693 24.3594L25.95 23.4094L25 23.7787L24.3808 22.0325C24.1564 22.2915 23.885 22.4921 23.5664 22.6344C23.2478 22.7767 22.9154 22.8376 22.5693 22.8171C22.1769 22.7966 21.8176 22.6793 21.4914 22.4652C21.1651 22.2511 20.9013 21.9799 20.7 21.6517C20.1603 21.9248 19.7324 22.3152 19.4163 22.8229C19.1003 23.3306 18.9423 23.8928 18.9423 24.5094C18.9423 25.4122 19.2583 26.1796 19.8902 26.8115C20.5222 27.4435 21.2895 27.7595 22.1923 27.7595H29.9423V29.2594H24.5577V31.7595H30.5577V33.2594H17.4423ZM25.7269 22.2133L26.8193 21.7864L25.0423 16.8748L23.9 17.2825L25.7269 22.2133ZM22.6916 21.6248C23.0075 21.6248 23.2725 21.518 23.4866 21.3044C23.7007 21.0907 23.8077 20.826 23.8077 20.5101C23.8077 20.1943 23.7009 19.9293 23.4872 19.7152C23.2736 19.5011 23.0088 19.3941 22.693 19.3941C22.3772 19.3941 22.1122 19.5009 21.8981 19.7145C21.684 19.9282 21.5769 20.1929 21.5769 20.5088C21.5769 20.8246 21.6838 21.0896 21.8974 21.3037C22.1111 21.5178 22.3758 21.6248 22.6916 21.6248Z" fill="#A3DF42"/>
</svg>
