<svg width="29" height="27" viewBox="0 0 29 27" fill="none" xmlns="http://www.w3.org/2000/svg">
<path d="M0 26.2499V0H14.2499V6H28.9038V26.2499H0ZM2.24995 24H6V20.2499H2.24995V24ZM2.24995 18H6V14.2499H2.24995V18ZM2.24995 12H6V8.24994H2.24995V12ZM2.24995 6H6V2.24995H2.24995V6ZM8.24994 24H12V20.2499H8.24994V24ZM8.24994 18H12V14.2499H8.24994V18ZM8.24994 12H12V8.24994H8.24994V12ZM8.24994 6H12V2.24995H8.24994V6ZM14.2499 24H26.6538V8.24994H14.2499V12H17.5384V14.2499H14.2499V18H17.5384V20.2499H14.2499V24ZM20.8269 14.2499V12H23.0769V14.2499H20.8269ZM20.8269 20.2499V18H23.0769V20.2499H20.8269Z" fill="#A3DF42"/>
</svg>
