<svg width="48" height="48" viewBox="0 0 48 48" fill="none" xmlns="http://www.w3.org/2000/svg">
<rect width="48" height="48" rx="8" fill="white" fill-opacity="0.1"/>
<rect x="0.5" y="0.5" width="47" height="47" rx="7.5" stroke="white" stroke-opacity="0.2"/>
<path d="M21.4039 32.9999V28.2115C20.3881 28.1323 19.3928 28.0215 18.418 27.879C17.4432 27.7366 16.4706 27.5333 15.5 27.2692L15.8654 25.7692C17.191 26.1205 18.5312 26.3654 19.8859 26.5038C21.2406 26.6423 22.6113 26.7115 23.9979 26.7115C25.3685 26.7115 26.7317 26.6423 28.0875 26.5038C29.4433 26.3654 30.7923 26.1205 32.1346 25.7692L32.5 27.2692C31.5192 27.5333 30.5394 27.7371 29.5605 27.8807C28.5817 28.0243 27.5936 28.136 26.5961 28.2157V32.9999H21.4039ZM24.0014 25.4038C23.4787 25.4038 23.0401 25.2271 22.6856 24.8738C22.3311 24.5205 22.1539 24.0827 22.1539 23.5604C22.1539 23.0534 22.3305 22.6186 22.6838 22.2557C23.0372 21.8929 23.475 21.7115 23.9973 21.7115C24.5042 21.7115 24.9391 21.8922 25.3019 22.2534C25.6647 22.6147 25.8461 23.049 25.8461 23.5563C25.8461 24.079 25.6655 24.5176 25.3042 24.8721C24.943 25.2266 24.5087 25.4038 24.0014 25.4038ZM16.75 22.5C16.3936 22.5 16.0962 22.3807 15.8577 22.1423C15.6193 21.9038 15.5 21.6055 15.5 21.2473C15.5 20.903 15.6193 20.609 15.8577 20.3654C16.0962 20.1218 16.3945 20 16.7527 20C17.097 20 17.391 20.1215 17.6346 20.3646C17.8782 20.6076 18 20.9028 18 21.25C18 21.6064 17.8785 21.9038 17.6354 22.1423C17.3924 22.3807 17.0972 22.5 16.75 22.5ZM31.25 22.5C30.8936 22.5 30.5961 22.3807 30.3577 22.1423C30.1192 21.9038 30 21.6055 30 21.2473C30 20.903 30.1192 20.609 30.3577 20.3654C30.5961 20.1218 30.8945 20 31.2526 20C31.597 20 31.891 20.1215 32.1346 20.3646C32.3782 20.6076 32.5 20.9028 32.5 21.25C32.5 21.6064 32.3784 21.9038 32.1354 22.1423C31.8923 22.3807 31.5972 22.5 31.25 22.5ZM19.3462 18.798C18.9898 18.798 18.6923 18.6788 18.4539 18.4404C18.2154 18.2019 18.0962 17.9036 18.0962 17.5454C18.0962 17.201 18.2154 16.907 18.4539 16.6635C18.6923 16.4199 18.9906 16.2981 19.3488 16.2981C19.6932 16.2981 19.9872 16.4196 20.2308 16.6627C20.4744 16.9057 20.5961 17.2008 20.5961 17.5481C20.5961 17.9045 20.4746 18.2019 20.2316 18.4404C19.9885 18.6788 19.6934 18.798 19.3462 18.798ZM28.6538 18.798C28.2974 18.798 28 18.6788 27.7615 18.4404C27.5231 18.2019 27.4039 17.9036 27.4039 17.5454C27.4039 17.201 27.5231 16.907 27.7615 16.6635C28 16.4199 28.2983 16.2981 28.6565 16.2981C29.0009 16.2981 29.2949 16.4196 29.5384 16.6627C29.782 16.9057 29.9038 17.2008 29.9038 17.5481C29.9038 17.9045 29.7823 18.2019 29.5392 18.4404C29.2962 18.6788 29.0011 18.798 28.6538 18.798ZM24 17.5C23.6436 17.5 23.3462 17.3807 23.1077 17.1423C22.8692 16.9038 22.75 16.6055 22.75 16.2473C22.75 15.903 22.8692 15.609 23.1077 15.3654C23.3462 15.1218 23.6445 15 24.0026 15C24.347 15 24.641 15.1215 24.8846 15.3646C25.1282 15.6076 25.25 15.9028 25.25 16.25C25.25 16.6064 25.1285 16.9038 24.8854 17.1423C24.6424 17.3807 24.3472 17.5 24 17.5Z" fill="#A3DF42"/>
</svg>
