<svg width="33" height="23" viewBox="0 0 33 23" fill="none" xmlns="http://www.w3.org/2000/svg">
<path opacity="0.2" d="M3.47693 22.6153L8.17309 14.4422C8.0577 14.5063 7.92307 14.5512 7.76921 14.5768C7.61536 14.6025 7.4615 14.6153 7.30764 14.6153C5.27432 14.6153 3.54805 13.8997 2.12883 12.4687C0.70961 11.0376 0 9.31724 0 7.30764C0 5.27432 0.70961 3.54805 2.12883 2.12883C3.54805 0.70961 5.27432 0 7.30764 0C9.31724 0 11.0376 0.70961 12.4687 2.12883C13.8997 3.54805 14.6153 5.27209 14.6153 7.30094C14.6153 8.00797 14.53 8.66404 14.3595 9.26917C14.189 9.87429 13.9396 10.4512 13.6114 10.9999L6.923 22.6153H3.47693ZM21.2461 22.6153L25.9423 14.4422C25.8269 14.5063 25.6923 14.5512 25.5384 14.5768C25.3846 14.6025 25.2307 14.6153 25.0769 14.6153C23.0435 14.6153 21.3173 13.8997 19.898 12.4687C18.4788 11.0376 17.7692 9.31724 17.7692 7.30764C17.7692 5.2615 18.4788 3.53202 19.898 2.11921C21.3173 0.706405 23.0435 0 25.0769 0C27.0865 0 28.8068 0.70961 30.2379 2.12883C31.669 3.54805 32.3845 5.27209 32.3845 7.30094C32.3845 8.00797 32.2992 8.66404 32.1287 9.26917C31.9582 9.87429 31.7089 10.4512 31.3807 10.9999L24.6922 22.6153H21.2461ZM7.30764 11C8.3333 11 9.2051 10.641 9.92306 9.92306C10.641 9.2051 11 8.3333 11 7.30764C11 6.28199 10.641 5.41018 9.92306 4.69222C9.2051 3.97426 8.3333 3.61528 7.30764 3.61528C6.28199 3.61528 5.41018 3.97426 4.69222 4.69222C3.97426 5.41018 3.61528 6.28199 3.61528 7.30764C3.61528 8.3333 3.97426 9.2051 4.69222 9.92306C5.41018 10.641 6.28199 11 7.30764 11ZM25.0769 11C26.1025 11 26.9743 10.641 27.6923 9.92306C28.4102 9.2051 28.7692 8.3333 28.7692 7.30764C28.7692 6.28199 28.4102 5.41018 27.6923 4.69222C26.9743 3.97426 26.1025 3.61528 25.0769 3.61528C24.0512 3.61528 23.1794 3.97426 22.4614 4.69222C21.7435 5.41018 21.3845 6.28199 21.3845 7.30764C21.3845 8.3333 21.7435 9.2051 22.4614 9.92306C23.1794 10.641 24.0512 11 25.0769 11Z" fill="#080A58"/>
</svg>
