<svg width="48" height="48" viewBox="0 0 48 48" fill="none" xmlns="http://www.w3.org/2000/svg">
<rect width="48" height="48" rx="8" fill="white" fill-opacity="0.1"/>
<rect x="0.5" y="0.5" width="47" height="47" rx="7.5" stroke="white" stroke-opacity="0.2"/>
<path d="M24 33.471C21.8372 32.8813 20.0465 31.6082 18.6279 29.6518C17.2093 27.6954 16.5 25.5082 16.5 23.0903V17.3365L24 14.5288L31.5 17.3365V23.0903C31.5 25.5082 30.7907 27.6954 29.3721 29.6518C27.9535 31.6082 26.1628 32.8813 24 33.471ZM24 31.8903C25.6167 31.3903 26.9667 30.4028 28.05 28.9278C29.1333 27.4528 29.7667 25.807 29.95 23.9903H24V16.1249L18 18.3653V23.0903C18 23.2608 18 23.4076 18 23.5307C18 23.6538 18.0167 23.807 18.05 23.9903H24V31.8903Z" fill="#A3DF42"/>
</svg>
