<svg width="48" height="48" viewBox="0 0 48 48" fill="none" xmlns="http://www.w3.org/2000/svg">
<rect width="48" height="48" rx="4" fill="#080A58" fill-opacity="0.05"/>
<path d="M24 25C23.0167 25 22.1875 24.6625 21.5125 23.9875C20.8375 23.3125 20.5 22.4833 20.5 21.5C20.5 20.5167 20.8375 19.6875 21.5125 19.0125C22.1875 18.3375 23.0167 18 24 18C24.9833 18 25.8125 18.3375 26.4875 19.0125C27.1625 19.6875 27.5 20.5167 27.5 21.5C27.5 22.4833 27.1625 23.3125 26.4875 23.9875C25.8125 24.6625 24.9833 25 24 25ZM24 23C24.4333 23 24.7917 22.8583 25.075 22.575C25.3583 22.2917 25.5 21.9333 25.5 21.5C25.5 21.0667 25.3583 20.7083 25.075 20.425C24.7917 20.1417 24.4333 20 24 20C23.5667 20 23.2083 20.1417 22.925 20.425C22.6417 20.7083 22.5 21.0667 22.5 21.5C22.5 21.9333 22.6417 22.2917 22.925 22.575C23.2083 22.8583 23.5667 23 24 23ZM24 34C21.6833 33.4167 19.7708 32.0875 18.2625 30.0125C16.7542 27.9375 16 25.6333 16 23.1V17L24 14L32 17V23.1C32 25.6333 31.2458 27.9375 29.7375 30.0125C28.2292 32.0875 26.3167 33.4167 24 34ZM24 16.125L18 18.375V23.1C18 24 18.125 24.875 18.375 25.725C18.625 26.575 18.9667 27.375 19.4 28.125C20.1 27.775 20.8333 27.5 21.6 27.3C22.3667 27.1 23.1667 27 24 27C24.8333 27 25.6333 27.1 26.4 27.3C27.1667 27.5 27.9 27.775 28.6 28.125C29.0333 27.375 29.375 26.575 29.625 25.725C29.875 24.875 30 24 30 23.1V18.375L24 16.125ZM24 29C23.4 29 22.8167 29.0667 22.25 29.2C21.6833 29.3333 21.1417 29.5167 20.625 29.75C21.1083 30.25 21.6333 30.6833 22.2 31.05C22.7667 31.4167 23.3667 31.7 24 31.9C24.6333 31.7 25.2333 31.4167 25.8 31.05C26.3667 30.6833 26.8917 30.25 27.375 29.75C26.8583 29.5167 26.3167 29.3333 25.75 29.2C25.1833 29.0667 24.6 29 24 29Z" fill="#080A58"/>
</svg>
