<svg width="48" height="48" viewBox="0 0 48 48" fill="none" xmlns="http://www.w3.org/2000/svg">
<rect width="48" height="48" rx="4" fill="#080A58" fill-opacity="0.05"/>
<path d="M24 34C21.6833 33.4167 19.7708 32.0875 18.2625 30.0125C16.7542 27.9375 16 25.6333 16 23.1V17L24 14L32 17V23.1C32 24.5167 31.7583 25.8792 31.275 27.1875C30.7917 28.4958 30.1 29.65 29.2 30.65L26 27.45C25.7 27.6333 25.3792 27.7708 25.0375 27.8625C24.6958 27.9542 24.35 28 24 28C22.9 28 21.9583 27.6083 21.175 26.825C20.3917 26.0417 20 25.1 20 24C20 22.9 20.3917 21.9583 21.175 21.175C21.9583 20.3917 22.9 20 24 20C25.1 20 26.0417 20.3917 26.825 21.175C27.6083 21.9583 28 22.9 28 24C28 24.3667 27.9542 24.7208 27.8625 25.0625C27.7708 25.4042 27.6333 25.7333 27.45 26.05L28.95 27.55C29.2833 26.8667 29.5417 26.15 29.725 25.4C29.9083 24.65 30 23.8833 30 23.1V18.375L24 16.125L18 18.375V23.1C18 25.1167 18.5667 26.95 19.7 28.6C20.8333 30.25 22.2667 31.35 24 31.9C24.4333 31.7667 24.8458 31.5958 25.2375 31.3875C25.6292 31.1792 26.0167 30.9333 26.4 30.65L27.8 32.05C27.25 32.5 26.6542 32.8917 26.0125 33.225C25.3708 33.5583 24.7 33.8167 24 34ZM24 26C24.55 26 25.0208 25.8042 25.4125 25.4125C25.8042 25.0208 26 24.55 26 24C26 23.45 25.8042 22.9792 25.4125 22.5875C25.0208 22.1958 24.55 22 24 22C23.45 22 22.9792 22.1958 22.5875 22.5875C22.1958 22.9792 22 23.45 22 24C22 24.55 22.1958 25.0208 22.5875 25.4125C22.9792 25.8042 23.45 26 24 26Z" fill="#080A58"/>
</svg>
