<svg width="45" height="44" viewBox="0 0 45 44" fill="none" xmlns="http://www.w3.org/2000/svg">
<rect width="44.6537" height="43.7307" rx="12" fill="#080A58"/>
<path d="M19.1384 31.7307L17.3538 28.723L13.9654 27.9807L14.2961 24.4922L12 21.8653L14.2961 19.2384L13.9654 15.75L17.3538 15.0077L19.1384 12L22.3269 13.3538L25.5153 12L27.2999 15.0077L30.6884 15.75L30.3576 19.2384L32.6537 21.8653L30.3576 24.4922L30.6884 27.9807L27.2999 28.723L25.5153 31.7307L22.3269 30.3768L19.1384 31.7307ZM19.7769 29.8153L22.3269 28.7346L24.9076 29.8153L26.3269 27.4153L29.0769 26.7846L28.8269 23.9653L30.6769 21.8653L28.8269 19.7346L29.0769 16.9153L26.3269 16.3153L24.8769 13.9153L22.3269 14.9961L19.7461 13.9153L18.3269 16.3153L15.5769 16.9153L15.8269 19.7346L13.9769 21.8653L15.8269 23.9653L15.5769 26.8153L18.3269 27.4153L19.7769 29.8153ZM21.2769 25.0692L26.5807 19.7653L25.5269 18.6807L21.2769 22.9307L19.1269 20.8115L18.0731 21.8653L21.2769 25.0692Z" fill="#A3DF42"/>
</svg>
